<?xml version="1.0" encoding="UTF-8" standalone="no"?>
<svg
   xmlns:dc="http://purl.org/dc/elements/1.1/"
   xmlns:cc="http://creativecommons.org/ns#"
   xmlns:rdf="http://www.w3.org/1999/02/22-rdf-syntax-ns#"
   xmlns:svg="http://www.w3.org/2000/svg"
   xmlns="http://www.w3.org/2000/svg"
   viewBox="0 0 333.33334 213.33333"
   height="213.33333"
   width="333.33334"
   xml:space="preserve"
   id="svg2"
   version="1.1"><metadata
     id="metadata8"><rdf:RDF><cc:Work
         rdf:about=""><dc:format>image/svg+xml</dc:format><dc:type
           rdf:resource="http://purl.org/dc/dcmitype/StillImage" /></cc:Work></rdf:RDF></metadata><defs
     id="defs6" /><g
     transform="matrix(1.3333333,0,0,-1.3333333,0,213.33333)"
     id="g10"><g
       transform="scale(0.1)"
       id="g12"><path
         id="path14"
         style="fill:#ffffff;fill-opacity:1;fill-rule:nonzero;stroke:none"
         d="m 2097.99,771.105 -3.24,1.051 c 0,0 45.5,9.61 65.82,54.078 11.92,26.086 12.74,55.907 1.33,82.239 -19.42,44.797 -47.85,83.914 -84.52,116.257 -18.16,16.03 -41.51,24.75 -65.73,24.86 -58.93,0.25 -84.5,-46.74 -84.5,-46.74 v 162.28 c 0,54.9 -43.81,99.25 -99.42,99.56 -23.46,0.13 -67.46,-7.8 -96.54,-15.59 -29.06,-7.78 -57.47,-18.25 -84.44,-31.11 -24.93,-11.89 -43.93,-33.85 -52.13,-60.25 -8.21,-26.44 -4.98,-55.36 8.86,-79.34 l 81.14,-140.537 c 0,0 -19.5,11.586 -46.7,11.586 -42.81,0 -80.73,-27.226 -94.34,-67.75 -1,-2.98 -1.96,-5.972 -2.88,-8.969 -12.94,12.458 -28.59,23.641 -47.66,32.7 -25.95,12.328 -55,18.843 -84.02,18.843 -22.15,0 -43.82,-3.757 -63.97,-11 -15,7.903 -32.04,12.305 -49.97,12.305 -25.41,0 -48.78,-8.918 -67.16,-23.765 v 19.601 c 0,59.035 -48.03,107.066 -107.06,107.066 -59.04,0 -107.07,-48.031 -107.07,-107.066 v -59.09 c -40.337,42.254 -94.118,59.598 -142.669,59.598 -36.398,0 -84.801,-11.848 -125.516,-45.348 -13.644,19.074 -33.019,33.125 -55.808,40.176 -10.387,3.215 -21.149,4.848 -31.984,4.848 -47.657,0 -89.149,-30.606 -103.243,-76.153 l -4.55,-14.707 -14.715,30.153 c -19.821,43.273 -81.039,80.339 -144.559,49.742 -26.016,-12.531 -45.414,-34.676 -54.808,-61.981 -9.395,-27.3 -7.594,-56.632 5.07,-82.578 L 443.488,556.09 c -30.351,-11.852 -52.906,-36.258 -62.343,-69.371 -9.075,-31.84 -3.325,-64.981 15.773,-90.93 14.996,-20.367 44.551,-44.937 100.156,-46.277 2.02,-0.051 4.008,-0.082 5.989,-0.082 78.011,0.011 135.089,38.582 156.597,105.832 8.852,27.668 19.106,60.226 29.621,93.879 1.922,-4.289 3.946,-8.493 6.102,-12.59 33.781,-64.039 95.48,-99.313 173.73,-99.313 73.75,0 125.496,24.903 157.497,57.293 18.11,-33.5 53.56,-56.32 94.25,-56.32 25.41,0 48.77,8.918 67.15,23.769 v -19.601 c 0,-59.039 48.03,-107.07 107.07,-107.07 58.1,0 105.54,46.519 107.03,104.269 0.54,0 84.18,-4.738 139.26,53.981 5.68,6.062 15.78,16.511 26.11,33.953 13.12,-7.231 28.18,-11.34 44.22,-11.34 12.97,0 25.32,2.699 36.51,7.558 6.16,-7.859 13.52,-14.851 21.93,-20.628 39.66,-27.243 85.63,-45.84 132.95,-53.793 5.46,-0.918 11.02,-1.379 16.54,-1.379 53.89,0 97.58,42.199 99.45,96.082 l 0.12,3.437 1.82,-2.918 c 18.31,-29.301 49.88,-46.793 84.46,-46.793 23.05,0 45.55,8.09 63.35,22.782 37,30.531 67.51,69.621 88.25,113.062 12.34,25.856 12.93,55.785 1.62,82.121 -11.32,26.348 -33.44,46.539 -60.71,55.402" /><path
         id="path16"
         style="fill:#050505;fill-opacity:1;fill-rule:nonzero;stroke:none"
         d="m 1607.22,605.539 h 4.18 c 3.4,0 6.57,0.18 6.57,4.012 0,3.383 -2.89,3.789 -5.51,3.789 h -5.24 z m -3.41,10.852 h 8.95 c 5.83,0 8.58,-2.145 8.58,-7.016 0,-4.348 -2.8,-6.207 -6.45,-6.602 l 7.03,-10.761 h -3.68 l -6.66,10.488 h -4.36 v -10.488 h -3.41 z m 7.88,-30.012 c 9.89,0 17.81,7.769 17.81,18.074 0,10.102 -7.92,17.871 -17.81,17.871 -9.9,0 -17.82,-7.769 -17.82,-18.086 0,-10.09 7.92,-17.859 17.82,-17.859 z m 0,38.996 c 11.53,0 21.21,-9.043 21.21,-20.922 0,-12.094 -9.68,-21.133 -21.21,-21.133 -11.54,0 -21.2,9.039 -21.2,20.918 0,12.094 9.66,21.137 21.2,21.137" /><path
         id="path18"
         style="fill:#050505;fill-opacity:1;fill-rule:evenodd;stroke:none"
         d="m 1158.65,545.281 c 0,-20.871 -16.92,-37.801 -37.79,-37.801 -20.88,0 -37.8,16.93 -37.8,37.801 v 376.133 c 0,20.875 16.92,37.797 37.8,37.797 20.87,0 37.79,-16.922 37.79,-37.797 V 545.281" /><path
         id="path20"
         style="fill:#050505;fill-opacity:1;fill-rule:nonzero;stroke:none"
         d="m 815.008,718.063 c 2.523,52.214 42.07,60.8 59.855,60.8 17.883,0 57.578,-8.695 59.692,-61.687 0,-2.801 -1.5,-4.457 -3.16,-4.457 H 818.297 c -1.828,0 -3.473,1.84 -3.289,5.344 z m 16.437,-67.555 135.785,-0.141 c 0.938,0 1.872,0.071 2.809,0.141 18.836,1.426 36.701,17.051 36.771,42.082 0,0.051 0.01,0.098 0.01,0.144 -0.03,0.661 -0.1,1.27 -0.13,1.918 -6.741,138.016 -95.374,158 -135.569,158 -41.797,0 -136.449,-24.675 -136.449,-178.132 0.719,-57.711 13.078,-168.008 134.437,-168.008 104.832,0 128.301,60.547 128.301,75.988 0,22.785 -18.976,42.109 -40.406,34.84 -17.395,-5.902 -41.242,-40.539 -79.676,-40.539 -54.988,0 -62.113,50.285 -62.113,60.992 0,8.836 4.613,12.277 16.23,12.715" /><path
         id="path22"
         style="fill:#050505;fill-opacity:1;fill-rule:nonzero;stroke:none"
         d="m 521.352,554.488 -118.09,241.969 c -9.407,19.27 -1.41,42.52 17.863,51.922 19.273,9.41 42.52,1.41 51.922,-17.863 l 91.43,-187.344 56.265,181.797 c 6.34,20.48 28.074,31.953 48.571,25.609 20.484,-6.34 31.953,-28.086 25.613,-48.57 0,0 -63.238,-206.817 -101.246,-325.649 -12.571,-39.308 -45.524,-58.808 -94.91,-57.597 -48.844,1.179 -56.422,29.976 -51.008,48.976 5.953,20.891 23.39,27.203 40.453,27.114 44.133,-0.231 49.75,26.507 33.137,59.636" /><path
         id="path24"
         style="fill:#050505;fill-opacity:1;fill-rule:nonzero;stroke:none"
         d="m 1457.19,666.828 c 0,-29.875 0,-83.508 -54.32,-83.508 -54.47,0 -54.32,53.633 -54.32,83.508 v 27.293 c 0,29.875 0,83.508 54.32,83.508 54.47,0 54.32,-53.633 54.32,-83.508 z m 74.87,28.703 c 0,49.602 -6.1,117.574 -68.73,147.328 -35.33,16.778 -78.86,16.485 -112.32,-2.855 -6.71,-3.883 -13.36,-8.176 -19.24,-12.566 -4.01,16.558 -18.9,28.871 -36.69,28.871 -20.87,0 -37.8,-16.922 -37.8,-37.797 V 442.379 c 0,-20.879 16.93,-37.801 37.8,-37.801 20.87,0 37.8,16.922 37.8,37.801 v 98.711 c 0,0 25.39,-31.129 65.81,-32.18 143.56,-3.738 134.15,152.391 133.37,186.621" /><path
         id="path26"
         style="fill:#d32323;fill-opacity:1;fill-rule:evenodd;stroke:none"
         d="m 1651.18,877.105 131.99,-64.367 c 25.38,-12.383 21.46,-49.718 -5.95,-56.55 L 1634.75,720.66 c -17.77,-4.43 -35.32,7.832 -37.42,26.028 -4.48,38.917 -0.05,77.355 11.91,112.937 5.81,17.281 25.55,25.473 41.94,17.48" /><path
         id="path28"
         style="fill:#d32323;fill-opacity:1;fill-rule:evenodd;stroke:none"
         d="m 1704.02,605.398 98.24,109.118 c 18.9,20.992 53.71,6.929 52.72,-21.297 l -5.12,-146.789 c -0.64,-18.301 -17.25,-31.84 -35.3,-28.801 -37.96,6.371 -73.86,21.043 -105.21,42.57 -15.06,10.352 -17.55,31.621 -5.33,45.199" /><path
         id="path30"
         style="fill:#d32323;fill-opacity:1;fill-rule:evenodd;stroke:none"
         d="m 1936.95,750.605 139.63,-45.378 c 17.38,-5.649 25.86,-25.317 17.98,-41.809 -16.38,-34.316 -40.14,-64.977 -69.82,-89.477 -14.12,-11.652 -35.27,-8.23 -44.97,7.297 l -77.83,124.559 c -14.97,23.957 8.14,53.539 35.01,44.808" /><path
         id="path32"
         style="fill:#d32323;fill-opacity:1;fill-rule:evenodd;stroke:none"
         d="m 2078.94,839.684 -141.15,-40.473 c -27.15,-7.785 -49.21,22.586 -33.42,46.004 l 82.12,121.734 c 10.2,15.117 31.39,17.899 45.07,5.836 28.14,-24.836 51.2,-55.906 66.77,-91.855 7.29,-16.805 -1.78,-36.2 -19.39,-41.246" /><path
         id="path34"
         style="fill:#d32323;fill-opacity:1;fill-rule:evenodd;stroke:none"
         d="m 1749.13,1182.19 c -25.41,-6.8 -49.65,-15.8 -72.56,-26.73 -15.9,-7.58 -21.91,-27.16 -13.1,-42.42 l 137.96,-238.954 c 15.47,-26.809 56.45,-15.824 56.45,15.129 v 275.915 c 0,17.62 -14.99,31.58 -32.56,30.19 -25.3,-1.99 -50.79,-6.32 -76.19,-13.13" /></g></g></svg>